<svg width="6" height="9" viewBox="0 0 6 9" fill="none" xmlns="http://www.w3.org/2000/svg">
<path d="M5.71701 0.0494478C5.80172 0.0902564 5.87321 0.154125 5.92326 0.233722C5.97332 0.31332 5.99992 0.405419 6.00001 0.499448V8.49946C5.99987 8.59354 5.97319 8.68568 5.92304 8.76528C5.87289 8.84488 5.80129 8.90872 5.71648 8.94945C5.63167 8.99019 5.53709 9.00617 5.4436 8.99555C5.35012 8.98494 5.26153 8.94817 5.188 8.88946L2.825 6.99945H0.5C0.367392 6.99945 0.240215 6.94678 0.146447 6.85301C0.0526784 6.75924 0 6.63206 0 6.49945V2.49945C0 2.36684 0.0526784 2.23966 0.146447 2.1459C0.240215 2.05213 0.367392 1.99945 0.5 1.99945H2.825L5.188 0.109448C5.26158 0.0506356 5.35027 0.0138008 5.44386 0.00318569C5.53745 -0.00742942 5.63213 0.00860693 5.71701 0.0494478Z" fill="#E5E5E5"/>
</svg>
