<svg width="14" height="13" viewBox="0 0 14 13" fill="none" xmlns="http://www.w3.org/2000/svg">
<path d="M10.5361 12.02C11.3266 11.2317 11.9536 10.2949 12.3809 9.2635C12.8082 8.2321 13.0275 7.12642 13.0261 6.01001C13.0275 4.89359 12.8082 3.78791 12.3809 2.75651C11.9536 1.72511 11.3266 0.788329 10.5361 0L9.82812 0.707001C10.5256 1.40259 11.0788 2.22918 11.4559 3.13924C11.8329 4.04931 12.0264 5.02493 12.0251 6.01001C12.0251 8.08101 11.1851 9.95601 9.82812 11.313L10.5361 12.02V12.02Z" fill="#E5E5E5"/>
<path d="M9.12106 10.6061C9.72554 10.0032 10.2049 9.2868 10.5317 8.49806C10.8584 7.70933 11.0261 6.8638 11.0251 6.01007C11.0261 5.15633 10.8584 4.3108 10.5317 3.52207C10.2049 2.73334 9.72554 2.01695 9.12106 1.41406L8.41406 2.12106C8.92554 2.63121 9.33117 3.2374 9.60764 3.9048C9.88411 4.57221 10.026 5.28767 10.0251 6.01007C10.0262 6.73256 9.8846 7.44817 9.6083 8.11575C9.332 8.78333 8.92648 9.38972 8.41506 9.90007L9.12106 10.6061Z" fill="#E5E5E5"/>
<path d="M7.70701 9.19195C8.12549 8.77455 8.45736 8.27855 8.68355 7.73248C8.90974 7.1864 9.02578 6.60101 9.02501 6.00995C9.02578 5.41889 8.90974 4.8335 8.68355 4.28742C8.45736 3.74135 8.12549 3.24535 7.70701 2.82795L7.00001 3.53495C7.32549 3.85962 7.5836 4.24541 7.75951 4.67016C7.93541 5.0949 8.02564 5.55022 8.02501 6.00995C8.02559 6.46967 7.93533 6.92498 7.75943 7.34971C7.58353 7.77445 7.32545 8.16025 7.00001 8.48495L7.70701 9.19195ZM5.71701 1.55995C5.80172 1.60075 5.87321 1.66462 5.92326 1.74422C5.97332 1.82382 5.99992 1.91592 6.00001 2.00995V10.01C5.99987 10.104 5.97319 10.1962 5.92304 10.2758C5.87289 10.3554 5.80129 10.4192 5.71648 10.46C5.63167 10.5007 5.53709 10.5167 5.4436 10.5061C5.35012 10.4954 5.26153 10.4587 5.18801 10.4L2.825 8.50995H0.5C0.367392 8.50995 0.240215 8.45727 0.146447 8.36351C0.0526784 8.26974 0 8.14256 0 8.00995V4.00995C0 3.87734 0.0526784 3.75016 0.146447 3.65639C0.240215 3.56263 0.367392 3.50995 0.5 3.50995H2.825L5.18801 1.61995C5.26158 1.56113 5.35027 1.5243 5.44386 1.51368C5.53745 1.50307 5.63213 1.5191 5.71701 1.55995V1.55995Z" fill="#E5E5E5"/>
</svg>
