<svg width="31" height="31" viewBox="0 0 31 31" fill="none" xmlns="http://www.w3.org/2000/svg">
<path d="M27.5069 13.551L10.4537 3.11882C10.1662 2.94277 9.83689 2.84665 9.49981 2.84041C9.16274 2.83417 8.83011 2.91802 8.53627 3.08332C8.24524 3.24604 8.0028 3.48335 7.83389 3.77083C7.66497 4.05832 7.57568 4.38561 7.5752 4.71904V25.5811C7.57739 26.0812 7.7781 26.5601 8.13322 26.9123C8.48833 27.2645 8.96878 27.4613 9.46895 27.4594C9.81805 27.4593 10.1604 27.363 10.4584 27.1813L27.5069 16.7491C27.781 16.5821 28.0074 16.3474 28.1646 16.0675C28.3217 15.7877 28.4043 15.4722 28.4043 15.1512C28.4043 14.8303 28.3217 14.5148 28.1646 14.2349C28.0074 13.9551 27.781 13.7204 27.5069 13.5534V13.551ZM9.46895 25.5586V4.73443L26.4926 15.1501L9.46895 25.5586Z" fill="#F4AC7D"/>
<path d="M9.46895 25.5586V4.73443L26.4926 15.1501L9.46895 25.5586Z" fill="#F4AC7D"/>
</svg>
